HIERARCHY
ROOT root
{
	OFFSET 0.000000 0.000000 0.000000
	CHANNELS 6 Xposition Yposition Zposition Zrotation Yrotation Xrotation
	JOINT lhip
	{
		OFFSET 0.058581 -0.082280 -0.017664
		CHANNELS 3 Zrotation Yrotation Xrotation
		JOINT lknee
		{
			OFFSET 0.043451 -0.386469 0.008037
			CHANNELS 3 Zrotation Yrotation Xrotation
			JOINT lankle
			{
				OFFSET -0.014790 -0.426874 -0.037428
				CHANNELS 3 Zrotation Yrotation Xrotation
				JOINT ltoe
				{
					OFFSET 0.041054 -0.060286 0.122042
					CHANNELS 3 Zrotation Yrotation Xrotation
					End Site
					{
						OFFSET 0.000000 0.000000 0.000000
					}
				}
			}
		}
	}
	JOINT rhip
	{
		OFFSET -0.060310 -0.090513 -0.013543
		CHANNELS 3 Zrotation Yrotation Xrotation
		JOINT rknee
		{
			OFFSET -0.043257 -0.383688 -0.004843
			CHANNELS 3 Zrotation Yrotation Xrotation
			JOINT rankle
			{
				OFFSET 0.019056 -0.420046 -0.034562
				CHANNELS 3 Zrotation Yrotation Xrotation
				JOINT rtoe
				{
					OFFSET -0.034840 -0.062106 0.130323
					CHANNELS 3 Zrotation Yrotation Xrotation
					End Site
					{
						OFFSET 0.000000 0.000000 0.000000
					}
				}
			}
		}
	}
	JOINT lowerback
	{
		OFFSET 0.004439 0.124404 -0.038385
		CHANNELS 3 Zrotation Yrotation Xrotation
		JOINT upperback
		{
			OFFSET 0.004488 0.137956 0.026820
			CHANNELS 3 Zrotation Yrotation Xrotation
			JOINT chest
			{
				OFFSET -0.002265 0.056032 0.002855
				CHANNELS 3 Zrotation Yrotation Xrotation
				JOINT lowerneck
				{
					OFFSET -0.013390 0.211636 -0.033468
					CHANNELS 3 Zrotation Yrotation Xrotation
					JOINT upperneck
					{
						OFFSET 0.010113 0.088937 0.050410
						CHANNELS 3 Zrotation Yrotation Xrotation
						End Site
						{
							OFFSET 0.000000 0.000000 0.000000
						}
					}
				}
				JOINT lclavicle
				{
					OFFSET 0.071702 0.114000 -0.018898
					CHANNELS 3 Zrotation Yrotation Xrotation
					JOINT lshoulder
					{
						OFFSET 0.122921 0.045205 -0.019046
						CHANNELS 3 Zrotation Yrotation Xrotation
						JOINT lelbow
						{
							OFFSET 0.255332 -0.015649 -0.022946
							CHANNELS 3 Zrotation Yrotation Xrotation
							JOINT lwrist
							{
								OFFSET 0.265709 0.012698 -0.007375
								CHANNELS 3 Zrotation Yrotation Xrotation
								End Site
								{
									OFFSET 0.000000 0.000000 0.000000
								}
							}
						}
					}
				}
				JOINT rclavicle
				{
					OFFSET -0.082954 0.112472 -0.023707
					CHANNELS 3 Zrotation Yrotation Xrotation
					JOINT rshoulder
					{
						OFFSET -0.113228 0.046853 -0.008472
						CHANNELS 3 Zrotation Yrotation Xrotation
						JOINT relbow
						{
							OFFSET -0.260127 -0.014369 -0.031269
							CHANNELS 3 Zrotation Yrotation Xrotation
							JOINT rwrist
							{
								OFFSET -0.269108 0.006794 -0.006027
								CHANNELS 3 Zrotation Yrotation Xrotation
								End Site
								{
									OFFSET 0.000000 0.000000 0.000000
								}
							}
						}
					}
				}
			}
		}
	}
}
MOTION
Frames: 11
Frame Time: 0.033333
0.069306 2.362972 0.983596 1.103883 1.255614 83.396840 -2.330270 0.660010 15.665486 -0.376645 -13.721647 10.041806 3.905744 14.004706 -24.019909 0.000000 -0.000000 0.000000 4.787783 1.771184 -7.849595 -2.459428 -3.653760 13.297044 2.465200 -11.889509 -14.987974 0.000000 -0.000000 0.000000 -2.467797 -1.129501 11.400116 0.038869 -1.998413 8.013809 -0.138674 0.453583 1.629459 7.400101 6.270512 2.266946 4.134133 -0.955854 5.257758 -28.648957 -10.794584 5.462131 -48.900574 -11.952409 14.246550 4.615971 -37.792240 4.393221 1.039112 -0.707767 -8.372961 31.350197 12.607719 10.016457 55.065384 7.561554 13.276706 -13.153203 20.160617 -13.308844 2.227462 0.132682 -15.595939 
0.064461 2.342717 0.982676 0.902217 1.374809 83.272730 -2.109434 0.328569 14.204083 -1.533290 -12.722041 16.058644 3.224029 14.302990 -24.214164 0.000000 -0.000000 0.000000 5.248721 1.596057 -6.117364 -2.233899 -3.288586 13.060562 2.189915 -11.929069 -15.453362 0.000000 -0.000000 0.000000 -2.122551 -0.735445 11.590513 0.253207 -2.213048 7.814456 -0.222681 0.610691 1.813399 7.215754 6.246037 2.162625 3.966908 -0.790171 5.371834 -28.464780 -10.901060 5.425131 -48.771628 -11.090496 14.182982 4.509257 -37.129852 4.949387 1.479160 -0.382170 -8.372491 31.375412 12.819584 9.927115 54.889628 7.219107 13.191521 -13.320664 20.504517 -12.823221 2.073562 -0.045639 -16.133479 
0.059100 2.322209 0.982600 0.164973 1.374822 83.185948 -2.067859 -0.268249 11.306307 -3.137896 -10.980526 24.498151 2.522230 14.095957 -22.862801 0.000000 -0.000000 0.000000 5.645471 1.103999 -4.301035 -2.007749 -2.682178 12.495556 1.665857 -11.500074 -15.886838 0.000000 -0.000000 0.000000 -1.809600 0.151228 11.609181 0.395727 -2.347481 7.988973 -0.397299 0.908711 1.830226 7.036698 6.128732 2.200728 4.037764 -0.730929 5.243896 -28.442383 -10.806746 5.292815 -48.324275 -10.067330 13.952201 4.079268 -36.094527 5.198828 2.585222 0.092069 -7.945800 31.580858 12.881019 9.964260 54.520702 7.351833 12.940818 -13.241357 20.684818 -12.284811 1.767423 -0.406332 -15.992882 
0.050861 2.291730 0.983062 -1.466195 1.178900 83.102575 -2.088683 -1.972236 4.363451 -6.217126 -7.754291 40.125440 1.957687 12.721037 -16.914045 0.000000 -0.000000 0.000000 6.026229 0.289336 -1.352055 -1.701895 -1.516496 11.103835 0.531654 -10.720729 -16.570728 0.000000 -0.000000 0.000000 -1.455256 1.968578 11.795978 0.513026 -2.465969 7.966528 -0.787691 1.500789 1.974004 6.683031 5.728964 2.343998 4.520549 -0.648672 5.143268 -28.411395 -10.194359 4.981505 -47.667926 -8.324231 13.470814 3.709567 -34.058096 5.210711 3.659793 1.083692 -7.702183 31.744629 12.951383 10.021255 54.156557 8.002203 12.646196 -13.106033 20.672734 -11.025085 1.662936 -1.021026 -15.695067 
0.048299 2.281652 0.983290 -1.998297 1.076386 83.059043 -2.034010 -2.635817 1.739613 -7.291519 -6.649296 45.108788 1.951099 12.065001 -14.871720 0.000000 -0.000000 0.000000 6.065613 -0.014554 -0.300768 -1.615035 -1.108444 10.554727 0.134999 -10.471123 -16.845825 0.000000 -0.000000 0.000000 -1.353812 2.599211 11.952537 0.510940 -2.521106 7.875187 -0.926416 1.703044 2.005354 6.538048 5.633212 2.388212 4.698828 -0.611849 5.177011 -28.452476 -9.922528 4.933468 -47.411784 -7.676837 13.221614 3.699707 -33.314577 5.095803 3.578255 1.276095 -7.786994 31.797980 12.988314 10.060695 54.020424 8.240941 12.534539 -13.086155 20.677897 -10.585559 1.828795 -1.097184 -15.676956 
0.043615 2.261433 0.983936 -3.036320 0.707164 82.895700 -1.945767 -3.747723 -3.323523 -9.032947 -4.373723 53.154892 2.170935 10.892176 -12.482585 0.000000 -0.000000 0.000000 5.862213 -0.675588 1.921541 -1.465149 -0.245685 9.411730 -0.371910 -9.937082 -17.485631 0.000000 -0.000000 0.000000 -1.321280 3.857322 12.415710 0.430210 -2.640919 7.681142 -1.180451 2.109145 2.024166 6.309670 5.592723 2.407511 4.957229 -0.583713 5.283233 -28.719092 -9.356179 4.895322 -46.691933 -6.307138 12.621298 3.717759 -31.666952 4.573090 3.216316 1.188510 -7.902891 32.105455 13.072501 10.176477 53.500868 8.738017 12.294651 -13.034724 20.741192 -9.980278 2.209988 -0.969670 -15.615309 
0.039552 2.240896 0.984971 -4.048103 0.099290 82.705728 -1.950298 -4.405203 -7.918673 -9.559710 -2.011835 57.767820 2.644064 10.335650 -12.061180 0.000000 -0.000000 0.000000 5.269969 -1.376823 4.236462 -1.365488 0.686805 8.164140 -0.450468 -9.372942 -18.072526 0.000000 -0.000000 0.000000 -1.597577 5.167631 12.800694 0.321943 -2.693066 7.664782 -1.332508 2.423639 2.063541 6.187724 5.576930 2.390833 5.067472 -0.628246 5.337294 -29.139889 -8.791334 4.893706 -45.895512 -5.029784 11.984674 3.682763 -29.688720 3.833340 3.042129 0.915241 -7.618580 32.512306 13.087140 10.234646 52.756640 9.387649 12.079608 -12.900558 20.791726 -9.750227 2.375727 -0.720378 -15.347792 
0.036093 2.219640 0.986253 -4.939118 -0.659862 82.607787 -2.031485 -4.826976 -11.965196 -8.848301 0.206269 58.773228 3.298561 10.562891 -12.203034 0.000000 -0.000000 0.000000 4.426512 -2.037813 6.575387 -1.366663 1.566891 6.744429 -0.306991 -8.880496 -18.468534 0.000000 -0.000000 0.000000 -2.077002 6.465479 12.859991 0.192492 -2.700410 7.799412 -1.390257 2.608661 2.185522 6.129536 5.459342 2.524292 5.105689 -0.716594 5.321123 -29.430346 -8.213233 4.923460 -45.387910 -3.950719 11.394062 3.615707 -27.269332 3.248606 2.840209 0.971133 -7.052063 32.684641 12.991035 10.182006 52.233450 10.211943 11.955064 -12.728666 20.732762 -9.693064 2.325720 -0.574935 -15.039384 
0.033180 2.197469 0.987500 -5.603470 -1.515924 82.589714 -2.291864 -5.226623 -15.169123 -7.469601 2.011787 56.458251 4.049942 11.357242 -12.574790 0.000000 -0.000000 0.000000 3.419290 -2.595627 8.999337 -1.466296 2.293741 5.114938 -0.045051 -8.525330 -18.657369 0.000000 -0.000000 0.000000 -2.689870 7.655777 12.620981 -0.001022 -2.730617 8.007234 -1.390034 2.726376 2.400508 6.141849 5.323023 2.795925 5.147659 -0.851713 5.256346 -29.512794 -7.663184 4.993475 -45.185960 -3.069689 10.829198 3.638501 -24.461330 2.780667 2.272087 1.254255 -6.377040 32.598849 12.827205 10.044510 52.079072 11.049210 11.944445 -12.623041 20.689129 -9.750241 2.293395 -0.477839 -14.852415 
0.030663 2.174433 0.988349 -6.054135 -2.432317 82.660304 -2.762533 -5.744833 -17.394285 -6.022659 3.314209 51.269634 4.725017 12.263275 -12.992461 0.000000 -0.000000 0.000000 2.369335 -2.977112 11.407702 -1.691285 2.885480 3.460718 0.258566 -8.383600 -18.816205 0.000000 -0.000000 0.000000 -3.429736 8.649058 12.230920 -0.295983 -2.796441 8.130606 -1.372022 2.866768 2.657192 6.279649 5.257492 3.105332 5.279581 -1.151548 5.151517 -29.508903 -7.077634 5.058278 -45.059202 -2.276031 10.273180 3.785137 -21.504982 2.367480 1.359110 1.662848 -5.504105 32.479664 12.638549 9.935836 52.141161 11.715381 12.068651 -12.602516 20.813730 -9.785028 2.357967 -0.339629 -14.800920 
0.028372 2.150826 0.988507 -6.288763 -3.290390 82.861593 -3.304722 -6.259774 -18.742833 -4.765967 3.992999 43.867296 5.169592 12.836377 -12.732612 0.000000 -0.000000 0.000000 1.513602 -3.181165 13.502439 -2.064496 3.294882 2.222497 0.500302 -8.547733 -19.184072 0.000000 -0.000000 0.000000 -4.280014 9.389259 11.764928 -0.632144 -2.840702 8.068776 -1.317831 2.975832 2.931988 6.559849 5.246682 3.312613 5.521130 -1.645464 5.143317 -29.472418 -6.411978 5.122121 -44.969686 -1.509714 9.808239 4.027368 -18.848452 2.126718 0.762547 2.001219 -4.276212 32.396493 12.444794 9.882015 52.292503 12.208050 12.313356 -12.560236 21.074658 -9.579404 2.375696 -0.150058 -14.689752 
